<svg width="96" height="96" viewBox="0 0 96 96" fill="none" xmlns="http://www.w3.org/2000/svg">
<path d="M46.5 35.4434C46.8094 35.2647 47.1906 35.2647 47.5 35.4434L55.8923 40.2887C56.2017 40.4673 56.3923 40.7974 56.3923 41.1547V50.8453C56.3923 51.2026 56.2017 51.5327 55.8923 51.7113L47.5 56.5566C47.1906 56.7353 46.8094 56.7353 46.5 56.5566L38.1077 51.7113C37.7983 51.5327 37.6077 51.2026 37.6077 50.8453V41.1547C37.6077 40.7974 37.7983 40.4673 38.1077 40.2887L46.5 35.4434Z" stroke="white" stroke-width="2"/>
<line x1="47" y1="30" x2="47" y2="18" stroke="white" stroke-width="2"/>
<line x1="47" y1="74" x2="47" y2="62" stroke="white" stroke-width="2"/>
<line x1="32.6436" y1="38.866" x2="22.2512" y2="32.866" stroke="white" stroke-width="2"/>
<line x1="70.7485" y1="60.866" x2="60.3562" y2="54.866" stroke="white" stroke-width="2"/>
<line x1="33.6436" y1="54.866" x2="23.2512" y2="60.866" stroke="white" stroke-width="2"/>
<line x1="71.7485" y1="32.866" x2="61.3562" y2="38.866" stroke="white" stroke-width="2"/>
</svg>
