<svg width="40" height="96" viewBox="0 0 40 58" fill="none" xmlns="http://www.w3.org/2000/svg">
<mask id="path-1-inside-1_1053_3180" fill="white">
<path fill-rule="evenodd" clip-rule="evenodd" d="M4 0C1.79086 0 0 1.79086 0 4V44C0 46.2091 1.79086 48 4 48H11.9172L16.536 56C18.0756 58.6667 21.9246 58.6667 23.4642 56L28.083 48H36C38.2091 48 40 46.2091 40 44V4C40 1.79086 38.2091 0 36 0H4Z"/>
</mask>
<path d="M11.9172 48L13.6492 47L13.0719 46H11.9172V48ZM16.536 56L18.268 55H18.268L16.536 56ZM23.4642 56L21.7321 55H21.7321L23.4642 56ZM28.083 48V46H26.9283L26.3509 47L28.083 48ZM2 4C2 2.89543 2.89543 2 4 2V-2C0.686292 -2 -2 0.68629 -2 4H2ZM2 44V4H-2V44H2ZM4 46C2.89543 46 2 45.1046 2 44H-2C-2 47.3137 0.686292 50 4 50V46ZM11.9172 46H4V50H11.9172V46ZM18.268 55L13.6492 47L10.1851 49L14.8039 57L18.268 55ZM21.7321 55C20.9623 56.3333 19.0378 56.3333 18.268 55L14.8039 57C17.1133 61 22.8868 61 25.1962 57L21.7321 55ZM26.3509 47L21.7321 55L25.1962 57L29.815 49L26.3509 47ZM36 46H28.083V50H36V46ZM38 44C38 45.1046 37.1046 46 36 46V50C39.3137 50 42 47.3137 42 44H38ZM38 4V44H42V4H38ZM36 2C37.1046 2 38 2.89543 38 4H42C42 0.686291 39.3137 -2 36 -2V2ZM4 2H36V-2H4V2Z" fill="white" mask="url(#path-1-inside-1_1053_3180)"/>
<line x1="8" y1="10" x2="32" y2="10" stroke="white" stroke-width="2"/>
<line x1="8" y1="18" x2="32" y2="18" stroke="white" stroke-width="2"/>
<line x1="8" y1="26" x2="32" y2="26" stroke="white" stroke-width="2"/>
</svg>
